<?xml version="1.0" encoding="utf-8"?>
<!-- Generator: Adobe Illustrator 21.0.0, SVG Export Plug-In . SVG Version: 6.00 Build 0)  -->
<svg version="1.1" id="Layer_1" xmlns="http://www.w3.org/2000/svg" xmlns:xlink="http://www.w3.org/1999/xlink" x="0px" y="0px"
	 viewBox="0 0 1000 1000" style="enable-background:new 0 0 1000 1000;" xml:space="preserve">
<style type="text/css">
	.st0{fill:#006938;}
	.st1{fill-rule:evenodd;clip-rule:evenodd;fill:#43A948;}
	.st2{clip-path:url(#SVGID_2_);}
	.st3{fill:#FFFFFF;}
	.st4{fill:#006838;}
	.st5{clip-path:url(#SVGID_2_);fill-rule:evenodd;clip-rule:evenodd;fill:#006838;}
</style>
<g>
	<path class="st0" d="M108.1,797.4h22.3l51.8,122.8l54.2-122.8h3.9l53.9,122.8l52.7-122.8h22.8l-73.3,169H292l-53.6-120.9
		l-54.2,120.9h-4L108.1,797.4z"/>
	<path class="st0" d="M474.8,789c25.9,0,47.5,9.4,64.6,28.2c15.8,17.1,23.7,37.5,23.7,61.1c0.2,58.3,0.2,87.8,0,88.8
		c-9.8,0-17.5,0-22.9,0c0-0.7,0-13.5,0-38.3c-12,22.4-33.8,34.9-65.4,37.5c-25.8,0-46.9-8.8-63.3-26.4
		c-16.4-17.6-24.5-38.1-24.5-61.6c0-23.4,7.7-43.7,23.2-60.9C427.3,798.4,448.8,789,474.8,789z M474.6,810.1
		c-17.9,0-33.4,6.7-46.3,20c-12.9,13.3-19.4,29.4-19.4,48.3c0,12.2,3.3,23.9,9.9,35.2c6.6,11.3,17.8,20.8,33.6,28.6
		c39.6,8.8,67.7-9.2,84.5-54c0.9-14.4-0.6-28.1-4.6-41.2c-2.9-5.9-6.8-11.6-11.8-16.9C507.8,816.8,492.5,810.1,474.6,810.1z"/>
	<path class="st0" d="M591.4,795.2H715l-95.5,151.4h92.5v19.3H582.3l95.2-151.4h-86.2V795.2z"/>
	<path class="st0" d="M740,901.9l-0.3-18c-0.3-8.8,0.1-16.3,1.1-22.5c2.3-19.4,7.2-33.6,14.8-42.6c7.4-7.9,14.9-14,22.6-18.3
		c12.7-5.4,27.2-8,43.5-7.7c12.7,0,24.5,3.2,35.3,9.6c10.8,6.4,18.5,15,23.1,25.8c4.6,10.8,6.9,27.8,6.9,50.8v86.8h-22v-80.5
		c0-19.5-0.8-32.5-2.5-39.1c-2.6-11.2-7.6-19.1-15.2-23.8c-7.6-4.7-18.8-7-33.6-7c-13.1,0-24.8,3.8-35,11.4
		c-10.2,7.6-15,17.9-14.3,31.1c-1.9,8.4-2.9,23.7-2.9,46v61.8H740V901.9z"/>
</g>
<g>
	<circle class="st1" cx="502.6" cy="384.9" r="364.6"/>
	<g>
		<defs>
			<circle id="SVGID_1_" cx="502.4" cy="383.8" r="296.1"/>
		</defs>
		<clipPath id="SVGID_2_">
			<use xlink:href="#SVGID_1_"  style="overflow:visible;"/>
		</clipPath>
		<g class="st2">
			<path class="st3" d="M503.9,105.7c-154.2,0-279.2,125-279.2,279.2c0,128.1,86.3,236.1,204,269v-34.2h161.7v30.8
				C702.3,614,783.2,508.9,783.2,384.9C783.2,230.7,658.1,105.7,503.9,105.7z"/>
			<polygon class="st4" points="428.7,619.6 428.7,653.8 428.7,723.9 590.4,723.9 590.4,650.4 590.4,619.6 			"/>
		</g>
		<path class="st5" d="M215.2,247.8c0-38.8,35.3-104.2,68.9-123.6L341,90.5l86-18c44.2-9.8,83.8-11.5,121.4-5.8
			c44.5,3.3,89,6.5,113,29.7l53.9,27.8c26.9,13,71.2,79.4,71.1,118.3l31.6,79.3v111.4c0,38.8-11.3,93.2-44.9,112.6l-53.1,53.1
			L629.2,664l-88.7,49.3c-4.4,2.6-4.6-79.1-4.6-79.1v-93.5l135.2-77.7c14.8-8.5,19.9-27.5,11.3-42.2c-8.5-14.7-27.6-19.8-42.4-11.3
			L536,469.5v-94l135.2-77.7c14.8-8.5,19.9-27.4,11.3-42.1c-8.5-14.7-27.6-19.8-42.4-11.3L536,304.2V203.7c0-17-13.9-30.9-31-30.9
			c-17,0-31,13.9-31,30.9v100.7l-103.6-59.9c-14.7-8.5-33.6-3.4-42.2,11.3c-8.5,14.7-3.4,33.6,11.3,42.1L474,375.6v94l-103.6-59.8
			c-14.7-8.5-33.6-3.4-42.2,11.3c-8.5,14.7-3.4,33.7,11.3,42.1L474,540.8v93.4c0.5,6.8,0.5,81.6-3.9,79.1l-79.4-33.1L334.5,648
			l-71.2-69.1c-24.6-9.7-70-101.2-70-140.1l4.5-109.3"/>
	</g>
</g>
</svg>
