<?xml version="1.0" encoding="utf-8"?>
<!-- Generator: Adobe Illustrator 21.0.0, SVG Export Plug-In . SVG Version: 6.00 Build 0)  -->
<svg version="1.1" xmlns="http://www.w3.org/2000/svg" xmlns:xlink="http://www.w3.org/1999/xlink" x="0px" y="0px"
	 viewBox="0 0 1333.3 1333.3" style="enable-background:new 0 0 1333.3 1333.3;" xml:space="preserve">
<g id="Layer_1">
</g>
<g id="Layer_2">
	<g>
		<path d="M137.8,1070.8H168l70,165.9l73.3-165.9h5.2l72.9,165.9l71.2-165.9h30.8l-99.1,228.4h-5.8l-72.4-163.4l-73.3,163.4h-5.4
			L137.8,1070.8z"/>
		<path d="M633.3,1059.4c35.1,0,64.2,12.7,87.3,38c21.3,23.1,32,50.7,32,82.5c0.3,78.7,0.3,118.7,0,119.9c-13.3,0-23.6,0-31,0
			c0-1,0-18.2,0-51.8c-16.2,30.2-45.7,47.1-88.4,50.7c-34.9,0-63.4-11.9-85.5-35.7c-22.1-23.8-33.2-51.5-33.2-83.3
			c0-31.6,10.5-59,31.4-82.3C569.1,1072.2,598.3,1059.4,633.3,1059.4z M633,1087.9c-24.3,0-45.1,9-62.6,27
			c-17.5,18-26.2,39.8-26.2,65.3c0,16.5,4.5,32.4,13.4,47.6c8.9,15.2,24.1,28.1,45.4,38.7c53.5,11.9,91.5-12.4,114.1-73
			c1.2-19.4-0.8-38-6.2-55.7c-3.9-8-9.2-15.7-16-22.9C677.9,1096.9,657.3,1087.9,633,1087.9z"/>
		<path d="M790.9,1067.8h167.1l-129.1,204.6h124.9v26H778.6l128.7-204.6H790.9V1067.8z"/>
		<path d="M991.7,1212l-0.4-24.3c-0.4-11.9,0.1-22,1.5-30.4c3-26.2,9.7-45.4,19.9-57.6c10-10.7,20.2-18.9,30.5-24.7
			c17.2-7.3,36.8-10.8,58.8-10.4c17.2,0,33.1,4.3,47.7,13c14.6,8.7,25,20.3,31.3,34.9c6.2,14.6,9.4,37.5,9.4,68.7v117.2h-29.8
			v-108.7c0-26.3-1.1-43.9-3.3-52.8c-3.5-15.1-10.3-25.8-20.5-32.1c-10.2-6.3-25.4-9.5-45.4-9.5c-17.7,0-33.5,5.1-47.3,15.4
			c-13.8,10.3-20.3,24.3-19.3,42c-2.6,11.4-3.9,32.1-3.9,62.2v83.6h-29V1212z"/>
	</g>
	<path d="M664,21.6c-274.2,0-496.5,220.3-496.5,492s222.3,492,496.5,492s496.5-220.3,496.5-492S938.2,21.6,664,21.6z M965,777.7
		c-63.5,71-152,119.3-251.6,131.2c-0.5-14.2-0.7-29-0.8-40.2c-0.1-11.2-0.1-18.8-0.1-18.8v-63.4v-63.4l91.7-52.7l91.7-52.7
		c10-5.8,16.7-15.1,19.5-25.4c2.8-10.4,1.6-21.8-4.1-31.8c-5.8-10-15.2-16.7-25.6-19.5c-10.4-2.8-21.9-1.6-31.9,4.1l-70.7,40.6
		l-70.7,40.6v-63.8v-63.8l91.7-52.7l91.7-52.7c10-5.7,16.7-15,19.5-25.4c2.8-10.4,1.6-21.8-4.1-31.8c-5.8-10-15.2-16.7-25.6-19.5
		c-10.4-2.8-21.9-1.6-31.9,4.1l-70.7,40.6l-70.7,40.6v-68.2v-68.2c0-11.5-4.7-22-12.4-29.6c-7.6-7.6-18.1-12.3-29.7-12.3
		c-11.6,0-22.1,4.7-29.7,12.3c-7.6,7.6-12.4,18.1-12.4,29.6V334v68.3L558,361.7l-70.3-40.6c-10-5.7-21.4-6.9-31.7-4.1
		c-10.4,2.8-19.7,9.5-25.4,19.4c-5.7,10-6.9,21.4-4.1,31.7c2.8,10.4,9.5,19.7,19.4,25.4l91.2,52.7l91.2,52.7v63.8v63.8L558,585.9
		l-70.3-40.6c-10-5.8-21.4-6.9-31.7-4.2c-10.4,2.8-19.7,9.5-25.4,19.4c-5.7,10-6.9,21.4-4.1,31.7c2.8,10.4,9.5,19.7,19.4,25.4
		l91.2,52.7l91.2,52.7v63.4v63.4c0.2,2.3,0.3,10.7,0.3,21.9c0,11.1-0.1,25-0.5,38.3c-102.2-9.4-193.2-57.1-258.8-128.6
		S263.8,614.7,263.8,510c0-110.9,45-211.3,117.6-284s173.1-117.6,284-117.6s211.3,45,284,117.6s117.6,173.1,117.6,284
		C1067.2,612.9,1028.5,706.6,965,777.7z"/>
</g>
</svg>
